<svg width="1440" height="680" viewBox="0 0 1440 680" fill="none" xmlns="http://www.w3.org/2000/svg">
<g clip-path="url(#clip0_413_413)">
<g clip-path="url(#clip1_413_413)">
<rect width="1440" height="800" fill="white"/>
<g clip-path="url(#clip2_413_413)">
<path d="M1238.07 207.469C1261.5 219.409 1284.88 231.439 1308.37 243.269C1323.39 250.839 1335.21 261.759 1342.84 276.719C1353.32 297.269 1353.54 318.419 1345.61 339.939C1337.69 361.449 1330.05 383.059 1322.32 404.639C1304.24 455.149 1286.14 505.649 1268.12 556.189C1256.85 587.789 1245.74 619.449 1234.52 651.069C1230.69 661.859 1226.78 672.629 1222.9 683.409H1216.9C1212.23 678.679 1210.6 672.199 1207.39 666.619C1203.01 659.029 1199.56 650.909 1195.17 643.289C1194.33 640.659 1193.2 638.159 1191.46 635.979C1191.17 635.589 1190.92 635.179 1190.69 634.759C1185.87 624.269 1180.01 614.279 1175.93 603.449C1174.76 600.349 1173.81 597.209 1172.98 594.009C1172.33 585.869 1175.94 578.739 1178.84 571.589C1180.89 566.549 1182.58 561.689 1182.04 556.219C1186.04 547.289 1190.19 538.419 1194.26 529.519C1201.64 513.389 1206.27 496.589 1207.51 478.769C1208.34 466.849 1211.12 455.139 1213.32 443.389C1215.52 431.649 1218.41 420.039 1220.41 408.249C1222.11 399.699 1224.52 391.309 1226.41 382.789C1227.16 379.419 1228.26 376.119 1228.88 372.699C1229.71 367.819 1231.19 362.999 1230.09 357.949C1229.34 354.509 1228.42 351.189 1225.58 348.759C1224.09 347.489 1223.59 345.759 1223.68 343.829C1224.31 338.319 1227.47 333.689 1229.02 328.489C1231.8 323.319 1232.26 317.319 1234.87 312.079C1236.21 309.819 1236.61 307.319 1236.74 304.749C1239.66 293.449 1241.96 282.029 1242.9 270.369C1244.57 259.909 1244.69 249.449 1243 238.989C1242.76 238.169 1242.65 237.329 1242.57 236.479C1242.08 228.659 1240.61 221.019 1238.29 213.539C1237.68 211.589 1236.3 209.549 1238.07 207.459V207.469Z" fill="#F3CBD1"/>
<path d="M770.127 597.439C771.407 594.259 768.967 592.319 767.297 590.589C754.227 577.019 746.957 560.139 739.437 543.279C731.257 524.949 721.827 507.239 712.047 489.699C703.387 474.169 693.907 459.109 685.447 443.499C679.387 432.309 683.757 422.089 697.867 422.349C701.677 422.419 705.227 424.129 709.037 423.479C709.767 423.179 710.297 423.499 710.737 424.059C730.027 448.669 753.267 469.099 778.147 487.799C780.257 489.389 782.387 491.029 783.497 493.579C783.107 497.259 784.157 499.969 787.917 501.499C806.977 509.279 820.727 523.129 831.787 540.059C836.807 547.729 841.097 555.779 845.297 563.909C848.197 569.529 851.997 574.579 858.117 578.089C859.557 572.419 858.697 567.359 856.597 562.439C852.807 553.529 847.717 545.319 842.667 537.099C841.727 535.569 840.377 534.179 840.577 532.159C840.957 531.049 841.837 530.639 842.917 530.509C848.697 531.389 853.207 535.029 858.157 537.659C881.787 550.249 906.007 561.539 930.807 571.639C939.267 575.089 947.537 578.999 956.347 581.549C958.187 582.079 959.977 582.779 958.877 585.349C957.837 586.929 957.427 588.699 957.527 590.529C957.987 598.949 956.457 607.279 956.437 615.679C955.417 626.429 955.047 637.239 953.657 647.959C952.437 657.359 951.917 666.819 951.517 676.289C951.407 678.899 951.857 681.739 949.007 683.399H836.037C834.667 682.009 834.427 680.169 834.057 678.389C829.017 653.929 817.017 633.319 799.387 615.849C794.437 610.939 789.157 606.439 783.307 602.559C779.217 599.839 775.107 597.659 770.127 597.439Z" fill="#F49F79"/>
<path d="M1173.97 594.359C1178.31 608.759 1186.34 621.529 1191.96 635.369C1189.62 642.819 1186.03 649.789 1183.7 657.259C1182.81 660.099 1182.84 662.609 1183.7 665.479C1185.5 671.469 1184.92 677.509 1182.92 683.409H1048.96C1044.42 675.739 1042.91 666.949 1039.8 658.749C1032.97 638.479 1026.41 618.109 1019.12 597.999C1018.34 595.859 1017.3 594.129 1015.29 593.029C1013.88 590.899 1015.88 590.439 1017.02 589.799C1038.55 577.679 1057.7 562.339 1076.39 546.319C1082.45 541.119 1088.45 535.899 1094.04 530.189C1095.18 529.019 1096.37 527.739 1098.31 528.089C1100.3 529.799 1099.12 531.829 1098.69 533.629C1097.45 538.809 1096.45 544.029 1095.14 549.189C1093.22 556.739 1094.17 564.039 1097.43 571.069C1097.89 572.069 1098.06 573.529 1099.57 573.439C1100.69 573.369 1101.04 572.209 1101.51 571.349C1104.28 566.359 1106.37 561.069 1107.21 555.449C1111.6 526.169 1124.44 501.219 1145.18 480.209C1148.61 476.729 1151.68 473.029 1151.89 467.799C1153.61 463.779 1156.61 460.599 1159.17 457.179C1172.03 440.039 1183.97 422.319 1194.51 403.659C1195.58 401.769 1196.74 399.939 1198.91 399.119C1199.41 399.079 1199.85 399.239 1200.24 399.549C1203.2 406.089 1205.41 407.419 1212.54 406.939C1215.53 405.759 1214.49 403.619 1213.8 401.609C1213.13 399.649 1212.43 397.579 1215.19 396.809C1217.69 396.109 1218.48 398.019 1219.38 399.929C1221.04 403.419 1220.87 406.829 1219.78 409.269C1219.81 409.049 1220.3 408.139 1221.85 408.509C1217.91 428.939 1213.24 449.229 1210.09 469.819C1209.31 474.879 1208.17 479.939 1208.04 485.019C1207.79 495.119 1205.11 504.619 1201.86 513.999C1196.76 528.709 1190.02 542.699 1182.84 556.499C1174.99 560.639 1171.76 568.059 1169.19 575.899C1164.75 589.399 1161.59 603.059 1164.29 617.419C1164.69 619.549 1165.13 621.659 1166.17 623.579C1166.99 625.089 1168.03 626.569 1169.96 626.239C1171.98 625.899 1172.33 624.059 1172.39 622.369C1172.66 615.239 1172.41 608.099 1172.54 600.969C1172.58 598.709 1172.03 596.269 1173.95 594.379L1173.97 594.359Z" fill="#F49F79"/>
<path d="M770.129 597.439C772.699 595.819 775.169 596.349 777.659 597.709C791.129 605.049 801.969 615.429 811.399 627.329C822.229 640.979 829.789 656.359 834.369 673.149C835.279 676.469 835.489 679.979 836.019 683.409H825.019C823.449 682.099 822.329 680.429 821.919 678.469C819.839 668.559 815.259 659.579 811.479 650.319C811.009 648.869 810.659 647.359 809.409 646.309C808.959 645.859 808.579 645.349 808.289 644.789C807.669 643.529 807.389 642.089 806.359 641.029C805.379 639.969 804.969 638.549 804.109 637.409C796.839 623.169 785.349 612.659 773.299 602.659C771.589 601.239 769.919 599.959 770.109 597.439H770.129Z" fill="#EF7E53"/>
<path d="M1182.92 683.399C1182.11 676.319 1185.11 668.979 1181.14 662.029C1179.95 659.939 1182.24 657.639 1183.01 655.529C1185.54 648.619 1187.19 641.289 1191.96 635.369H1191.94C1193.44 637.599 1194.27 640.199 1195.84 642.389C1203.49 655.739 1210.47 669.429 1216.9 683.399H1182.91H1182.92Z" fill="#F49F76"/>
<path d="M809.027 644.409C809.357 644.739 809.697 645.079 810.027 645.409C811.107 646.529 811.257 648.129 812.047 649.399C818.097 660.069 821.397 671.799 825.027 683.399H801.037C804.537 671.979 806.277 660.249 806.937 648.349C807.147 644.459 805.007 641.069 804.127 637.399C805.097 638.409 806.057 639.429 807.027 640.439C807.727 641.749 807.907 643.319 809.027 644.409Z" fill="#F49F79"/>
<path d="M783.017 493.459C769.237 482.339 755.057 471.679 741.987 459.709C730.857 449.519 720.907 438.169 711.007 426.799C710.167 425.839 709.677 424.579 709.027 423.469C699.087 410.299 689.477 396.939 682.957 381.639C681.867 379.649 680.987 377.559 680.057 375.489C675.307 365.389 671.317 355.049 669.957 343.869C667.237 327.769 664.527 311.669 665.987 295.229C666.027 293.329 666.057 291.419 666.097 289.519C668.647 289.639 668.067 291.739 668.297 293.189C668.637 295.299 668.147 297.479 668.777 300.129C671.227 298.379 673.607 298.239 676.507 299.059C680.077 300.069 683.987 300.309 687.787 299.709C691.107 299.189 692.887 300.129 692.467 303.879C692.107 307.059 692.777 310.119 694.187 313.009C695.227 314.909 696.227 316.829 697.287 318.719C703.027 328.939 719.327 329.179 725.507 318.289C726.747 316.109 727.797 313.789 728.427 311.399C730.597 303.219 730.417 294.899 728.787 286.689C727.867 282.069 724.227 279.069 720.527 276.389C716.207 273.639 714.707 268.099 709.647 265.879C707.217 264.809 708.607 262.179 710.167 260.959C714.927 257.229 719.497 253.019 726.037 252.639C731.377 254.819 736.277 257.919 742.237 258.799C752.827 260.369 763.547 255.869 769.487 246.879C774.237 239.689 777.317 231.409 783.827 225.349C787.157 222.249 790.647 219.489 794.977 217.949C803.377 214.959 809.587 209.109 814.027 201.739C818.697 194.009 818.017 185.679 813.647 177.939C807.227 166.579 794.357 161.659 779.357 164.279C762.437 167.229 748.817 176.129 736.667 187.729C735.457 188.879 734.367 190.149 732.737 190.739C727.677 192.309 723.837 194.759 723.007 200.749C722.457 204.719 719.677 205.689 715.977 203.729C713.157 202.239 710.197 201.189 707.207 200.159C705.167 198.829 704.507 196.609 703.577 194.559C703.507 194.039 703.627 193.559 703.937 193.139C703.877 192.389 704.027 191.749 704.797 191.409C706.727 189.549 708.717 187.739 710.007 185.339C717.417 175.089 727.177 167.389 737.577 160.519C743.927 156.319 750.837 153.019 758.027 150.389C760.257 149.069 762.807 148.609 765.177 147.639C778.927 144.289 792.747 142.059 807.027 142.359C828.537 142.819 849.127 147.409 869.207 154.709C891.627 162.869 912.447 174.019 931.527 188.389C932.987 189.489 934.527 190.469 936.037 191.499C940.127 192.569 942.637 195.899 945.637 198.459C949.857 202.059 949.817 202.269 953.157 198.109C965.177 183.139 978.507 169.389 993.287 157.199C1009.86 143.529 1027.5 131.379 1047.55 123.039C1053.26 120.669 1059.03 118.889 1065 117.559C1080.62 112.869 1096.57 110.909 1112.86 111.609C1114.34 111.669 1115.85 111.499 1117.16 112.429C1115.17 114.199 1116.92 115.309 1117.92 116.499C1125.63 125.619 1132.59 135.279 1138.72 145.519C1142.28 151.479 1145.36 157.709 1148.79 163.739C1153.33 173.869 1157.31 184.219 1160.91 194.719C1169.06 221.799 1172.17 249.549 1170.06 277.659C1168.27 301.529 1161.89 324.519 1152.71 346.629C1138.03 381.989 1119.76 415.339 1096.39 445.769C1076.45 471.739 1052.79 493.369 1022.99 507.609C1001.49 517.879 978.867 524.389 955.117 526.749C945.027 527.749 934.927 528.989 924.777 528.739C895.537 527.999 866.847 523.809 838.897 514.809C831.617 512.469 824.397 509.929 817.097 507.639C810.417 504.299 804.367 499.819 797.457 496.879C792.837 494.909 788.057 493.629 783.017 493.439V493.459Z" fill="#EF7C7F"/>
<path d="M1064.97 117.579C1059.63 120.609 1053.58 121.809 1047.95 124.199C1026.65 133.259 1007.92 146.219 990.528 161.149C976.338 173.339 963.348 186.809 951.928 201.699C950.528 203.529 948.958 204.259 947.508 202.329C944.278 198.039 939.498 195.479 936.008 191.509C939.338 188.579 939.638 184.199 941.048 180.429C947.158 164.119 952.228 147.389 959.088 131.409C967.148 112.619 981.668 101.229 1002.48 98.4587C1013.94 96.9287 1024.47 99.3087 1034.62 104.369C1042.21 108.149 1049.83 111.859 1057.36 115.769C1059.81 117.039 1062.25 117.749 1064.97 117.569V117.579Z" fill="#F3CBD1"/>
<path d="M704.067 194.539C706.377 195.419 705.927 197.959 707.067 199.539C708.797 204.639 706.887 209.519 704.967 213.829C702.907 218.439 700.877 223.889 694.767 225.239C694.117 225.379 693.557 225.869 693.257 226.469C688.757 235.319 684.157 244.179 687.187 254.639C687.847 256.919 687.737 258.859 685.817 260.499C683.417 262.549 684.257 264.169 686.587 265.519C688.927 266.869 690.017 268.889 690.377 271.579C691.007 276.399 692.287 277.049 696.947 275.019C698.967 274.139 700.857 273.089 703.037 274.479C704.387 275.339 704.587 276.529 704.077 277.939C698.197 285.619 694.397 294.079 693.947 303.919C693.797 307.109 695.637 310.539 693.077 313.519C691.307 310.589 690.707 307.309 691.167 304.029C691.667 300.479 690.587 300.709 687.507 301.019C683.177 301.449 678.487 302.239 674.357 299.669C672.697 298.639 671.607 299.299 670.577 300.659C669.857 301.609 669.607 303.629 667.857 302.829C666.427 302.179 667.277 300.439 667.097 299.189C666.637 295.979 668.087 292.579 666.107 289.529C667.267 272.519 671.347 256.209 677.927 240.509C679.797 237.299 680.937 233.789 681.987 230.249C682.307 228.529 682.787 226.879 683.857 225.459C686.097 223.559 686.537 220.619 687.987 218.269C688.027 217.249 687.767 216.119 688.997 215.529C690.407 214.099 690.877 212.089 692.077 210.529V210.549C693.987 208.029 696.097 205.639 697.077 202.539C697.997 201.089 699.477 200.009 699.987 198.269C700.217 197.999 700.447 197.729 700.677 197.469C702.377 197.169 701.637 193.989 704.087 194.569L704.067 194.539Z" fill="#F18082"/>
<path d="M1147.91 163.579C1144.15 160.749 1143.1 156.089 1141.08 152.289C1133.56 138.169 1123.97 125.629 1113.59 113.329C1114.54 112.089 1116.02 112.889 1117.13 112.439C1125.01 112.409 1132.42 114.849 1139.93 116.749C1140.51 117.369 1140.46 118.039 1140.07 118.729C1139.32 119.579 1138.18 118.949 1137.16 119.519C1140.48 124.359 1142.36 130.289 1148.69 132.539C1150.35 133.129 1151.7 134.709 1152.51 136.339C1153.58 138.519 1154.98 139.529 1157.52 139.509C1160.76 139.489 1162.96 140.659 1160.56 144.359C1159.4 146.139 1160.6 147.049 1161.68 148.119C1163.63 150.049 1166.33 150.609 1168.59 151.989C1172.35 154.279 1173.37 159.539 1176.09 161.179C1179.36 163.149 1182.85 164.419 1185.02 167.839C1185.38 168.399 1184.84 167.749 1185.23 168.289C1185.02 170.739 1185.9 172.279 1187.89 174.079C1192 177.799 1196.31 180.949 1201.51 182.879C1202.79 183.819 1203.52 185.009 1203.22 186.669C1199.97 191.759 1202.51 196.579 1203.99 201.429C1204.55 203.269 1205.73 203.069 1207.04 202.039C1208.35 200.999 1209.2 198.439 1211.42 199.909C1213.73 201.439 1214.1 204.039 1213.52 206.609C1212.75 210.029 1212.27 213.459 1212.62 216.969C1212.79 218.749 1213.47 220.649 1211.42 221.879C1208.15 221.959 1206.07 221.359 1206.64 217.069C1207.09 213.699 1205.58 210.539 1202.01 209.089C1200.89 208.639 1199.41 208.139 1199.57 206.939C1200.23 202.089 1196.19 198.499 1196.54 193.569C1196.92 188.289 1191.5 184.339 1186.22 185.299C1183 185.879 1181.1 183.939 1180.8 181.449C1180.24 176.739 1176.38 173.889 1174.87 169.619C1173.92 166.949 1169.35 165.559 1166.96 162.709C1164.46 159.729 1161.85 156.639 1157.39 156.069C1155.35 155.809 1154.67 153.289 1153.23 151.949C1152.24 151.029 1150.98 149.939 1149.72 150.649C1148.13 151.539 1149.28 153.079 1149.75 154.179C1151.29 157.769 1151.16 160.949 1147.95 163.589L1147.91 163.579Z" fill="#ED6167"/>
<path d="M1243.99 238.329C1246.4 249.109 1246.04 259.899 1243.97 270.679C1241.85 267.429 1244.51 263.879 1243.34 261.139C1243.36 261.839 1243.46 263.129 1243.37 264.399C1243.29 265.489 1243.86 267.139 1242.48 267.429C1240.97 267.749 1239.96 266.279 1239.95 264.929C1239.88 256.849 1235.16 250.649 1231.87 243.819C1229.63 239.169 1229.48 233.689 1229.67 228.739C1229.92 222.189 1229.84 216.409 1224.62 211.589C1223 210.099 1221.8 207.919 1220.92 205.739C1219.44 198.289 1216.11 191.239 1216.02 183.489C1216.16 182.369 1217.01 181.439 1216.9 180.129C1216.75 180.879 1216.56 181.509 1216.13 182.029C1214.3 183.539 1212.18 183.569 1212.3 180.969C1212.56 175.259 1208.39 173.769 1204.61 171.939C1201.62 170.489 1200.28 168.529 1201.04 165.259C1201.65 163.309 1203.41 162.339 1204.72 160.979C1205.34 160.299 1205.97 159.609 1206.83 159.209C1207.29 159.109 1207.74 159.149 1208.17 159.319C1210.41 160.079 1210.66 162.219 1211.4 163.999C1212 164.919 1212.97 165.219 1213.93 165.549C1214.98 167.059 1217.63 167.479 1217.04 170.099C1217.77 172.099 1219.91 172.859 1220.97 174.569C1221.61 175.559 1222.25 176.559 1222.9 177.549C1223.96 178.789 1224.24 180.579 1225.68 181.549C1231.2 189.529 1234.44 198.599 1238.06 207.479C1240.65 217.029 1243.79 226.479 1243.91 236.529C1242.71 240.449 1243.79 244.459 1243.36 247.659C1243.48 249.079 1244.37 248.009 1243.83 248.399C1243.19 245.039 1242.97 241.679 1243.98 238.339L1243.99 238.329Z" fill="#F06566"/>
<path d="M1207.91 159.549C1207.58 159.549 1207.24 159.549 1206.91 159.549C1205.96 159.909 1205.08 160.299 1205.91 161.549C1204.58 162.549 1203.24 163.549 1201.91 164.549C1201.76 164.619 1201.54 164.799 1201.47 164.749C1195.21 160.509 1187.63 157.729 1184.51 149.949C1183.94 148.519 1183.29 147.689 1181.79 147.489C1178.97 147.119 1176.74 145.429 1175.04 143.469C1172.25 140.259 1168.89 137.989 1165.33 135.789C1162.11 133.809 1159.56 131.659 1155.02 132.309C1149.21 133.139 1139.6 123.589 1139.92 118.559C1139.92 117.959 1139.92 117.359 1139.92 116.759C1141.54 117.069 1143.15 117.369 1144.77 117.679C1147.47 118.699 1150.28 119.379 1152.92 120.579C1167.02 126.079 1180.19 133.209 1191.91 142.869C1192.74 143.909 1193.68 144.829 1194.81 145.559C1195.18 145.909 1195.55 146.269 1195.92 146.619C1197.52 147.739 1198.83 149.169 1200.27 150.459C1200.56 150.429 1200.78 150.549 1200.92 150.809C1201.71 151.859 1202.63 152.779 1203.69 153.559C1204.43 154.299 1205.17 155.029 1205.91 155.769C1206.51 157.069 1208.45 157.659 1207.91 159.559V159.549Z" fill="#F16369"/>
<path d="M665.988 295.229C666.358 306.009 665.938 316.849 668.068 327.519C669.148 332.909 670.468 338.279 669.948 343.869C667.338 341.779 668.198 338.649 667.768 335.999C665.788 323.759 664.648 311.439 665.098 299.019C665.148 297.699 665.128 296.359 665.988 295.229Z" fill="#EF7D80"/>
<path d="M1207.91 159.549C1207.4 158.199 1205.85 157.409 1205.91 155.759C1208.57 158.029 1211.39 160.159 1212.78 163.549C1212.34 164.239 1211.71 164.549 1210.91 164.549C1208.44 163.759 1210.56 160.229 1207.91 159.549Z" fill="#F36668"/>
<path d="M697.047 202.519C698.007 206.839 694.877 208.589 692.037 210.529C692.887 207.349 694.697 204.759 697.047 202.519Z" fill="#EF7F82"/>
<path d="M681.968 230.239C681.728 234.099 680.728 237.659 677.908 240.499C678.778 236.889 679.858 233.359 681.968 230.239Z" fill="#EF7F82"/>
<path d="M687.968 218.249C687.078 220.929 687.428 224.319 683.838 225.439C684.838 222.829 685.808 220.189 687.968 218.249Z" fill="#EF7F82"/>
<path d="M709.987 185.359C709.377 188.349 707.777 190.499 704.777 191.439C706.047 189.019 707.777 186.979 709.987 185.359Z" fill="#EF7F82"/>
<path d="M1152.92 120.569C1149.97 120.249 1147.2 119.439 1144.77 117.669C1147.82 117.709 1150.63 118.409 1152.92 120.569Z" fill="#F9D7D9"/>
<path d="M1220.98 174.559C1219.12 173.559 1216.64 173.089 1217.05 170.089C1219.29 170.759 1220.63 172.219 1220.98 174.559Z" fill="#F16369"/>
<path d="M765.158 147.659C763.038 149.259 760.638 150.119 758.008 150.409C759.838 148.049 762.458 147.749 765.158 147.659Z" fill="#F9D4D5"/>
<path d="M1200.26 150.449C1198.44 149.589 1196.42 148.949 1195.91 146.609C1198.22 146.909 1199.39 148.519 1200.26 150.449Z" fill="#F36668"/>
<path d="M680.059 375.489C681.749 377.199 682.789 379.209 682.959 381.639C681.039 380.039 680.069 377.989 680.059 375.489Z" fill="#F3A1A3"/>
<path d="M692.047 210.509C691.707 212.599 691.107 214.529 688.967 215.509C689.587 213.589 690.187 211.659 692.047 210.509Z" fill="#EF7F82"/>
<path d="M704.068 194.539C702.778 195.319 702.588 197.399 700.658 197.439C701.128 195.539 701.828 193.829 703.928 193.169C703.978 193.629 704.028 194.079 704.078 194.539H704.068Z" fill="#EF7F82"/>
<path d="M699.957 198.239C700.147 200.459 698.747 201.599 697.047 202.529C697.307 200.619 698.447 199.299 699.957 198.239Z" fill="#EF7F82"/>
<path d="M1225.69 181.539C1223.48 181.099 1223.23 179.299 1222.91 177.539C1224.64 178.309 1224.99 180.049 1225.69 181.539Z" fill="#F16369"/>
<path d="M1210.91 164.549C1211.3 163.779 1212 163.579 1212.78 163.549C1213.17 164.209 1213.55 164.879 1213.94 165.539C1212.57 166.309 1211.49 166.189 1210.91 164.549Z" fill="#F16369"/>
<path d="M1203.68 153.549C1201.99 153.409 1201.06 152.499 1200.91 150.799C1202.19 151.359 1203.38 151.999 1203.68 153.549Z" fill="#F36668"/>
<path d="M1194.81 145.549C1193.1 145.449 1192.1 144.589 1191.91 142.859C1193.17 143.439 1194.44 144.009 1194.81 145.549Z" fill="#F36668"/>
<path d="M1221.9 205.539C1225.07 208.839 1226.53 213.349 1230.53 216.249C1233 218.039 1231.05 222.079 1231 225.009C1230.85 233.819 1231.42 242.329 1236.59 249.839C1239.61 254.219 1241.11 258.959 1240.93 264.259C1240.91 264.879 1241.17 265.539 1241.42 266.139C1241.52 266.369 1241.93 266.469 1242.31 266.699C1243.73 264.509 1242.15 261.879 1243.96 258.279C1243.96 263.339 1243.96 267.009 1243.96 270.669C1243.81 282.609 1240.96 294.079 1237.82 305.489C1236.76 307.709 1236.68 310.209 1235.88 312.499C1233.55 317.719 1233.36 323.719 1229.97 328.549C1228.76 328.829 1228.59 327.979 1228.55 327.139C1228.46 325.139 1228.17 322.929 1229.03 321.229C1232.87 313.649 1230.52 306.819 1227.18 299.889C1225.91 297.249 1223.62 296.079 1221.49 294.569C1219.17 286.689 1216.86 278.809 1215.39 270.699C1214.92 268.079 1214.95 265.979 1216.96 263.879C1219.33 261.419 1219.1 258.809 1216.17 256.729C1215.2 256.039 1214.19 255.259 1214.37 253.959C1215.68 244.629 1211.9 236.079 1210.36 227.179C1210.03 225.279 1209.2 223.269 1210.88 221.529C1212.67 217.799 1210.43 213.969 1211.16 210.139C1211.65 207.549 1213.99 205.039 1211.94 202.119C1211.49 201.479 1211.51 200.389 1210.56 200.229C1209.55 200.059 1209.16 200.919 1208.93 201.739C1208.28 204.079 1206.11 204.909 1204.34 204.979C1201.78 205.079 1203.47 202.299 1202.57 201.079C1200.48 198.239 1201.04 194.689 1200.13 191.529C1199.5 189.369 1200.09 187.179 1202.87 186.549C1203.39 185.899 1203.63 185.089 1204.08 184.409C1204.84 183.239 1204.94 181.289 1206.87 181.369C1208.9 181.449 1210.12 182.759 1210.66 184.699C1210.88 185.489 1210.9 186.589 1211.56 186.939C1218.21 190.409 1218.42 197.199 1220.11 203.229C1220.4 204.249 1221.18 204.849 1221.86 205.559L1221.9 205.539Z" fill="#EE6265"/>
<path d="M1173.97 594.359C1173.96 603.669 1173.92 612.989 1173.95 622.299C1173.95 624.939 1173.76 627.579 1170.69 628.219C1167.5 628.889 1165.79 626.729 1164.79 624.039C1161.36 614.769 1161.27 605.299 1162.9 595.659C1164.86 584.019 1167.44 572.579 1173.97 562.509C1176 559.389 1178.17 555.909 1182.87 556.459C1185.33 561.859 1182.35 566.409 1180.48 571.089C1177.47 578.619 1174.12 586.029 1173.98 594.349L1173.97 594.359Z" fill="#EF7E53"/>
<path d="M1221.86 408.489C1220.29 408.329 1220.46 411.719 1218.61 410.329C1217.25 409.309 1218.77 407.929 1219.24 406.809C1220.67 403.399 1217.77 401.019 1217.21 398.079C1217.08 397.379 1215.73 397.369 1215 397.759C1213.58 398.499 1214.1 399.559 1214.65 400.669C1216.18 403.719 1217.72 406.819 1212.92 408.489C1213.28 400.699 1208.89 397.659 1199.91 399.489C1199.58 399.489 1199.25 399.489 1198.92 399.489C1197.64 397.769 1198.71 396.309 1199.51 394.899C1204.48 386.039 1209.03 376.969 1213.02 367.619C1213.77 365.859 1214.34 363.739 1216.7 363.249C1221.05 366.429 1226.03 368.709 1229.95 372.509C1228.08 382.699 1226.02 392.859 1222.66 402.679C1221.97 404.679 1222.3 406.589 1221.87 408.499L1221.86 408.489Z" fill="#F49E77"/>
<path d="M1221.9 294.509C1226.51 294.399 1228.19 297.419 1228.84 301.279C1229.09 302.769 1228.85 304.639 1230.32 305.289C1235.92 307.799 1232.84 311.889 1231.93 315.109C1230.67 319.559 1229.35 323.879 1229.98 328.549C1229.33 333.929 1225.91 338.339 1224.75 343.539C1225 348.259 1223.03 352.359 1221.08 356.449C1220.39 357.899 1219.92 359.569 1217.93 359.829C1216.28 359.489 1214.17 359.059 1214.14 357.199C1214.03 350.959 1210.84 344.729 1214.98 338.419C1217.54 334.509 1217.52 329.629 1216.37 324.979C1216.4 321.589 1215.9 318.169 1216.77 314.799C1217.99 313.259 1218.08 311.639 1217.11 309.929C1216.49 307.369 1217.54 305.299 1219.51 303.959C1222.04 302.229 1223.13 300.529 1221.22 297.629C1220.62 296.719 1220.9 295.389 1221.91 294.519L1221.9 294.509Z" fill="#EE6065"/>
<path d="M1217.9 359.419C1220.98 354.469 1223.09 349.099 1224.75 343.529C1224.96 344.789 1224.5 346.199 1225.67 347.229C1233.95 354.489 1232.43 363.409 1229.94 372.489C1224.89 371.569 1221.89 366.939 1217.17 365.369C1216.9 365.279 1216.98 364.129 1216.89 363.479C1215.87 361.789 1215.28 360.209 1217.88 359.409L1217.9 359.419Z" fill="#F5A176"/>
<path d="M1243.99 238.329V249.469C1243.37 245.129 1241.72 240.749 1243.91 236.519C1243.94 237.119 1243.96 237.729 1243.99 238.329Z" fill="#EE6265"/>
<path d="M1195.84 642.399C1193.41 640.689 1192.57 638.089 1191.93 635.379C1194.3 637.129 1195.23 639.669 1195.84 642.399Z" fill="#F49F79"/>
<path d="M1235.89 312.499C1235.82 309.969 1235.67 307.409 1237.83 305.489C1238.05 308.059 1237.42 310.409 1235.89 312.499Z" fill="#EA8888"/>
<path d="M1217.9 359.419C1216.53 360.519 1217.04 362.079 1216.91 363.489C1212.59 372.129 1208.14 380.699 1204.02 389.439C1202.41 392.839 1199.61 395.629 1198.93 399.489C1193.95 407.449 1188.94 415.389 1184 423.369C1174.52 438.699 1163.94 453.249 1152.89 467.459C1145.33 465.109 1139.8 468.839 1134.75 473.689C1122.63 485.309 1113.1 498.789 1106.25 514.119C1104.69 517.609 1102.9 520.989 1101.58 524.579C1100.94 526.339 1099.88 527.819 1097.97 528.439C1090.44 535.389 1083.11 542.579 1075.32 549.219C1067.54 555.859 1059.25 561.899 1051.27 568.309C1041.96 575.779 1031.81 582.039 1022.02 588.819C1019.82 590.339 1016.83 590.179 1015 592.369C1011.71 597.459 1004.39 600.869 998.878 599.139C986.178 595.159 973.598 590.819 961.138 586.139C960.188 585.779 959.378 585.189 959.048 584.139C953.128 581.889 947.178 579.729 941.308 577.359C922.298 569.699 903.558 561.449 885.018 552.659C870.828 545.929 857.318 537.929 843.058 531.409C841.788 530.289 839.948 530.799 838.618 529.839C831.398 522.769 825.068 514.829 817.348 508.259C816.838 507.819 816.718 507.119 817.018 506.439C831.398 510.889 845.578 516.069 860.298 519.309C872.398 521.969 884.468 524.889 896.948 525.489C906.538 525.949 916.118 527.379 925.698 527.319C955.438 527.139 984.578 522.649 1012.12 511.119C1036.5 500.919 1057.89 486.159 1076.32 466.879C1089.81 452.769 1101.76 437.529 1112.24 421.239C1121.99 406.079 1130.82 390.309 1138.82 374.089C1145.15 361.259 1151.03 348.239 1155.79 334.809C1160.82 320.619 1164.81 306.059 1166.96 291.049C1171.2 261.419 1169.34 232.189 1161.74 203.279C1160.98 200.409 1160.52 197.459 1159.91 194.549C1161.26 191.889 1163.15 189.219 1166.26 189.669C1169.19 190.089 1169.98 193.159 1170.31 195.919C1170.74 199.519 1172.5 202.379 1174.67 205.249C1178.26 209.999 1182.14 214.629 1184.03 220.479C1184.98 223.409 1187.21 225.489 1189.46 227.519C1193.54 231.199 1193.56 235.719 1189.36 239.289C1187.39 240.969 1186.07 241.799 1189.73 243.039C1192.96 244.129 1194.56 250.349 1192.4 252.819C1189.69 255.929 1188.75 251.729 1186.38 251.009C1186.65 256.929 1186.73 262.689 1184.86 268.259C1184.38 269.689 1185.51 270.769 1186.82 271.369C1189.95 272.829 1190.33 275.569 1190.12 278.529C1189.89 281.679 1189.64 284.879 1189.03 287.939C1186.17 302.309 1186.43 316.559 1188.9 330.989C1189.73 335.839 1191.19 339.789 1194.21 343.499C1196.27 346.029 1197.54 345.279 1198.43 342.889C1199.92 338.869 1202.54 335.219 1202.64 330.719C1202.69 328.589 1203.91 327.319 1205.75 326.639C1207.49 325.999 1209.13 325.349 1210.36 323.829C1212.83 320.759 1215.04 321.139 1216.91 324.479C1219 326.989 1218.89 336.279 1216.18 339.429C1213.8 342.199 1213.51 344.819 1214.56 348.079C1215 349.449 1215.09 351.059 1214.86 352.479C1214.36 355.539 1215.33 357.779 1217.91 359.409L1217.9 359.419Z" fill="#EB5F65"/>
<path d="M959.047 584.149C971.527 588.479 984.037 592.729 996.457 597.199C1001.2 598.909 1005.4 598.999 1009.46 595.579C1011.07 594.229 1013.13 593.429 1014.99 592.369C1017.15 592.149 1018.83 592.519 1019.64 594.969C1024.06 608.309 1028.57 621.609 1033.04 634.929C1035.67 642.759 1038.29 650.589 1040.91 658.419C1022.46 648.199 1003.32 639.329 984.567 629.679C976.457 625.509 968.367 621.279 960.247 617.099C958.647 616.269 957.107 615.159 955.127 615.499C954.957 606.039 956.637 596.649 956.027 587.179C955.877 584.939 957.157 584.289 959.037 584.139L959.047 584.149Z" fill="#F3CBD1"/>
<path d="M817.007 506.449C824.957 513.499 832.407 521.019 839.017 529.349C839.997 530.179 840.567 531.269 840.987 532.459C847.937 543.519 855.457 554.269 859.357 566.969C860.467 570.589 859.857 574.229 859.977 577.849C860.067 580.749 858.377 580.329 856.797 579.169C851.397 575.199 846.887 570.329 844.017 564.269C838.257 552.089 831.327 540.659 823.057 530.059C813.637 517.989 801.997 508.709 787.777 502.779C781.957 500.349 781.237 498.779 783.017 493.449C788.787 490.479 793.787 493.999 798.517 496.019C804.987 498.769 810.877 502.899 817.007 506.439V506.449Z" fill="#EF7E53"/>
<path d="M731.338 454.499C733.908 454.519 735.128 455.209 733.918 457.789C731.338 463.299 726.038 465.489 721.218 468.209C720.328 468.719 719.238 468.169 718.638 467.259C717.718 465.859 717.848 464.309 718.808 463.079C722.128 458.849 726.418 455.989 731.338 454.489V454.499Z" fill="#EF7F55"/>
<path d="M840.988 532.469C839.658 531.859 838.998 530.829 839.018 529.359C840.698 529.379 842.268 529.629 843.048 531.419C842.208 531.469 841.438 531.649 840.988 532.469Z" fill="#F19270"/>
<path d="M1097.97 528.439C1102.52 521.479 1104.9 513.479 1108.73 506.149C1113.36 497.299 1119.09 489.289 1125.39 481.699C1129.89 476.279 1134.79 471.099 1140.98 467.339C1145.14 464.809 1148.94 464.529 1152.89 467.449C1153.33 471.749 1151.56 475.159 1148.71 478.199C1140.22 487.239 1131.85 496.359 1125.68 507.249C1117.39 521.889 1111.09 537.209 1108.87 554.049C1107.91 561.369 1104.93 568.059 1101.4 574.499C1100.12 576.829 1098.81 577.009 1097.56 574.559C1093.61 566.829 1091.73 558.789 1093.56 550.069C1095.07 542.859 1097.61 535.859 1097.98 528.429L1097.97 528.439Z" fill="#EF7E53"/>
<path d="M1199.91 399.479C1204.27 396.119 1211.28 397.879 1214.09 402.759C1215.53 405.259 1213.99 406.719 1212.92 408.479C1209.44 408.509 1206.04 408.749 1203 406.189C1200.77 404.309 1199.36 402.449 1199.91 399.479Z" fill="#F07E54"/>
<path d="M809.028 644.409C807.218 643.659 806.948 642.139 807.028 640.439C808.338 641.439 808.868 642.829 809.028 644.409Z" fill="#F39A74"/>
<path d="M812.047 649.399C810.717 648.399 810.197 646.999 810.027 645.409C811.847 646.159 812.117 647.689 812.047 649.399Z" fill="#F19168"/>
<path d="M979.977 440.469C956.687 434.049 934.377 425.219 913.677 412.709C896.907 402.579 881.857 390.439 872.577 372.559C864.627 357.249 863.557 341.389 868.707 324.939C872.217 313.699 876.947 303.339 886.337 295.649C892.847 290.309 900.447 287.269 908.597 286.649C927.387 285.229 944.807 289.659 960.097 301.039C963.537 303.599 965.457 303.169 968.017 299.709C978.147 286.029 990.387 274.849 1006.82 269.129C1019.49 264.719 1031.58 266.579 1043.28 272.659C1055.23 278.869 1063.97 287.859 1068.63 300.699C1069.84 304.029 1070.62 307.379 1070.9 310.829C1072.32 328.579 1069.06 345.499 1061.86 361.769C1050.46 387.539 1034.59 410.149 1014.17 429.499C1009.26 434.149 1003.73 438.159 998.447 442.409C996.827 443.709 994.977 444.099 992.847 443.629C990.267 443.069 987.617 442.819 985.007 442.439C983.617 441.059 981.657 441.139 979.987 440.469H979.977Z" fill="#F29FA8"/>
<path d="M732.109 189.559C736.679 186.879 739.949 182.669 744.079 179.469C757.519 169.079 772.109 162.009 789.669 162.499C807.719 162.999 821.099 178.219 817.799 195.859C816.019 205.359 808.999 211.799 800.939 216.379C794.319 220.139 787.079 222.719 782.059 228.929C777.559 234.489 774.589 240.949 770.939 246.999C761.929 261.909 742.559 263.849 729.529 255.519C728.409 254.809 727.249 254.169 726.099 253.499C720.259 249.669 717.769 243.889 716.639 237.309C714.579 225.349 715.459 213.859 722.099 203.299C722.959 201.599 724.329 200.179 724.879 198.309C725.179 197.409 725.579 196.579 726.279 195.919C727.859 194.649 729.279 193.219 730.419 191.539C731.149 191.019 731.529 190.209 732.119 189.559H732.109Z" fill="#F29FA8"/>
<path d="M1216.91 324.499C1214.58 322.629 1212.35 321.339 1210.92 325.409C1210.81 325.719 1210.63 326.019 1210.41 326.259C1203.72 333.239 1203.62 333.399 1199.89 343.099C1199.18 344.939 1198.79 347.099 1196.31 347.389C1193.58 347.709 1194.16 344.899 1193 343.739C1185.83 336.569 1187.12 327.019 1186.09 318.259C1185.52 313.449 1185.66 308.459 1185.71 303.539C1185.79 295.829 1188.23 288.559 1188.6 280.979C1188.77 277.459 1190.9 273.069 1184.7 272.159C1182.97 271.909 1182.57 269.969 1183.16 268.469C1185.18 263.309 1185.7 258.049 1184.97 252.589C1184.75 250.919 1184.98 248.719 1186.62 248.269C1188.45 247.769 1188.49 250.049 1189.03 251.329C1189.42 252.259 1189.82 253.299 1191.09 252.919C1192.09 252.619 1192.1 251.489 1191.87 250.809C1191.04 248.379 1194.35 242.769 1187.33 244.819C1186.17 245.159 1186.04 243.169 1185.72 242.089C1185.21 240.369 1185.83 239.359 1187.47 238.569C1191.85 236.469 1192.41 231.819 1188.84 228.809C1185.49 225.989 1183.43 222.459 1181.69 218.319C1179.68 213.549 1176.38 209.159 1172.91 205.249C1170.5 202.539 1169.52 199.639 1169.01 196.399C1168.07 190.399 1167.48 190.049 1163.02 193.249C1162.14 193.879 1160.65 193.359 1159.93 194.559C1156.26 189.179 1155.75 182.579 1153.06 176.769C1151.1 172.539 1148.28 168.489 1147.93 163.579C1149.61 160.009 1150.2 156.509 1147.97 152.849C1147.37 151.869 1146.19 150.079 1147.53 149.279C1148.73 148.559 1150.69 148.369 1152.17 149.369C1153.53 150.289 1154.95 151.159 1155.62 152.829C1156.05 153.909 1156.63 155.319 1157.86 155.289C1164.48 155.119 1167.1 160.639 1170.07 164.689C1172.13 167.499 1176.1 165.199 1176.72 168.189C1177.23 170.649 1176.37 173.109 1179.43 174.739C1182.03 176.129 1180.6 179.669 1182.06 181.969C1183.43 184.129 1184.91 185.669 1187.09 183.669C1189.45 181.509 1190.76 182.119 1191.95 184.559C1192.59 185.869 1193.72 186.539 1194.95 187.019C1197.32 187.949 1198.07 189.639 1197.98 192.099C1197.86 195.689 1199 198.809 1200.35 202.239C1201.56 205.309 1202.7 207.119 1204.97 209.419C1206.99 211.459 1209.98 214.659 1207.56 219.069C1206.45 221.099 1210.4 219.769 1210.93 221.529C1211.4 225.789 1211.94 230.029 1213.26 234.139C1215.31 240.499 1216.9 246.929 1215.41 253.669C1215.1 255.089 1216.07 255.169 1216.93 255.689C1220.9 258.099 1221.04 261.889 1217.83 265.159C1214.17 268.879 1217.74 272.839 1218.04 276.669C1218.53 282.779 1222.4 288.179 1221.93 294.519C1221.95 295.339 1221.63 296.519 1222.06 296.929C1226.49 301.179 1223.15 303.099 1219.8 305.219C1217.9 306.419 1217.8 308.479 1217.94 310.519C1217.45 311.849 1217.66 313.189 1217.94 314.519C1216.69 317.759 1218.84 321.339 1216.94 324.519L1216.91 324.499Z" fill="#EB6066"/>
<path d="M732.107 189.559C732.047 190.369 731.847 191.109 731.067 191.549C729.897 193.349 728.157 194.679 727.047 196.529C726.247 196.959 726.067 197.709 726.027 198.529C725.137 199.939 723.907 201.099 723.087 202.569C720.347 209.489 717.367 216.309 717.007 223.939C716.487 234.929 718.667 244.999 726.087 253.509C720.267 254.629 715.717 258.169 711.187 261.609C709.497 262.889 707.477 264.949 711.877 265.679C713.787 265.999 715.247 267.609 715.947 269.109C717.167 271.729 719.187 273.509 721.067 275.499C720.167 276.439 719.007 276.489 717.867 276.289C713.707 275.559 709.707 275.959 705.857 277.749C704.957 278.169 703.957 278.279 703.087 277.539C703.237 273.459 700.837 274.289 698.737 275.519C697.317 276.349 696.207 277.459 694.357 277.559C690.887 277.749 688.377 277.299 689.047 272.849C689.557 269.439 688.147 267.429 684.717 266.089C681.287 264.749 681.247 261.819 684.457 259.919C686.667 258.609 686.487 257.519 686.087 255.169C684.697 247.109 683.177 238.799 689.997 232.039C691.047 230.999 691.077 229.679 691.087 228.329C691.117 225.199 692.277 223.209 695.847 223.499C697.857 223.659 698.487 222.029 699.557 220.709C704.597 214.519 705.677 206.979 707.077 199.539C710.737 199.339 713.937 200.859 716.717 202.849C719.637 204.929 721.787 203.559 721.797 201.139C721.817 193.899 726.687 191.619 732.127 189.559H732.107Z" fill="#EF7F82"/>
<path d="M1087.95 160.169C1088.65 164.779 1086.03 168.879 1083.22 172.429C1078.42 178.499 1073.48 184.479 1066.57 188.599C1057.64 193.919 1046.96 192.759 1038.97 184.869C1034.03 179.999 1033.79 166.449 1038.59 159.569C1046.5 148.229 1056.87 141.739 1071.25 142.469C1080.93 142.959 1088 149.889 1087.96 160.179L1087.95 160.169Z" fill="#F29FA8"/>
<path d="M703.068 277.539C708.758 274.179 714.788 273.769 721.058 275.499C728.468 279.689 731.498 286.149 731.078 294.499C730.728 301.379 731.638 308.209 728.548 314.969C723.898 325.119 717.578 329.179 706.688 327.419C701.688 326.609 698.608 323.159 696.008 319.239C694.828 317.459 694.028 315.419 693.058 313.489C692.238 304.179 692.748 295.099 696.878 286.429C698.478 283.069 701.538 280.849 703.068 277.519V277.539Z" fill="#F29FA8"/>
<path d="M979.979 440.469C981.909 440.469 983.959 440.169 984.999 442.439C983.209 442.079 981.379 441.829 979.979 440.469Z" fill="#F08D93"/>
<path d="M1221.9 205.539C1220.09 205.419 1219.12 205.419 1218.47 202.739C1217.22 197.619 1218.14 190.889 1211.12 188.609C1209.94 188.229 1209.15 187.479 1209.64 185.969C1210.22 184.199 1209.27 183.039 1207.69 182.529C1204.85 181.609 1206.35 184.439 1205.48 185.279C1204.71 186.029 1203.94 186.479 1202.91 186.539C1202.24 185.539 1201.58 184.539 1200.91 183.539C1200.67 181.309 1200.43 179.159 1197.61 178.539C1196.67 178.329 1195.76 177.469 1195.53 176.539C1194.29 171.589 1190.87 169.659 1186.11 169.379C1185.64 169.349 1185.25 168.929 1184.92 168.549C1183.25 167.669 1182.03 166.319 1181.04 164.769C1180.5 163.929 1179.8 162.469 1178.99 162.959C1173.23 166.449 1174.37 161.359 1173.45 158.709C1172.2 155.079 1168.9 153.179 1165.87 151.949C1163.44 150.959 1161.68 149.499 1159.72 148.039C1157.69 146.519 1156.97 145.089 1159.56 143.519C1160.34 143.039 1160.94 142.569 1160.58 141.579C1160.23 140.609 1159.27 140.429 1158.52 140.609C1154.81 141.479 1152.33 140.539 1151.29 136.529C1151.04 135.559 1149.87 134.469 1148.88 134.099C1143.29 132.019 1140.18 127.619 1137.47 122.679C1136.75 121.359 1135.31 120.159 1136.24 118.729C1137.06 117.479 1138.68 118.959 1139.93 118.559C1142.41 124.819 1147.49 130.769 1153.21 130.649C1164.78 130.399 1170.35 138.579 1177.91 144.189C1179.49 145.359 1180.69 147.069 1183.11 146.179C1184.08 145.819 1185.68 146.739 1185.51 147.379C1184.45 151.279 1188.95 152.089 1189.66 155.229C1190.09 157.119 1192.07 160.139 1195.7 158.819C1197.43 158.189 1198.69 159.339 1198.81 161.079C1198.96 163.169 1200.4 163.819 1201.91 164.539C1201.78 167.639 1202.11 169.559 1205.95 171.129C1209.29 172.499 1215.45 173.869 1213.2 180.819C1212.48 183.039 1214.8 181.809 1215.9 181.529C1216.45 181.649 1216.79 181.969 1216.9 182.529C1217.32 190.459 1220.91 197.709 1221.9 205.519V205.539Z" fill="#EE6367"/>
<path d="M1184.92 168.549C1190.43 168.209 1195.01 168.849 1196.31 175.739C1196.91 178.899 1201.53 177.989 1203.51 180.219C1203.19 181.909 1200.57 181.559 1200.91 183.539C1193.52 182.649 1189.73 176.059 1183.89 172.669C1181.73 171.419 1184.58 169.969 1184.91 168.539L1184.92 168.549Z" fill="#EE6265"/>
<path d="M1216.91 182.539C1216.58 182.209 1216.24 181.869 1215.91 181.539C1216.14 180.069 1215.28 178.249 1217.51 177.169C1217.97 179.139 1218.48 180.919 1216.91 182.539Z" fill="#F16369"/>
<path d="M1205.91 161.549C1204.7 160.929 1203.35 159.889 1204.21 158.649C1205.15 157.309 1205.86 159.539 1206.91 159.549C1206.58 160.219 1206.24 160.879 1205.91 161.549Z" fill="#F36668"/>
<path d="M1217.91 314.509C1215.93 313.179 1214.58 311.839 1217.91 310.509C1220.48 311.839 1219.31 313.179 1217.91 314.509Z" fill="#EB5F65"/>
<path d="M727.047 196.529C727.317 193.999 729.187 192.769 731.067 191.549C730.777 194.059 728.927 195.309 727.047 196.529Z" fill="#F1888F"/>
<path d="M723.088 202.569C723.098 200.519 724.458 199.439 726.028 198.529C725.998 200.569 724.638 201.639 723.088 202.569Z" fill="#F08990"/>
<path d="M1194.86 307.379C1195.27 305.129 1195.66 302.709 1196.21 300.339C1196.33 299.809 1196.98 299.309 1197.5 299.019C1197.71 298.899 1198.25 299.379 1198.65 299.589C1196.77 302.519 1200.3 305.589 1198.55 308.309C1197.77 309.519 1198.89 312.409 1196.32 311.859C1194.39 311.449 1195.06 309.129 1194.86 307.389V307.379Z" fill="#EB5F65"/>
<path d="M1194.87 328.139C1193.93 328.079 1193.38 327.539 1193.24 326.649C1193.13 325.919 1193.51 325.299 1194.22 325.189C1195.25 325.039 1195.62 325.829 1195.76 326.679C1195.87 327.359 1195.72 327.989 1194.87 328.149V328.139Z" fill="#EB5F65"/>
<path d="M1197.38 276.159C1196.19 276.079 1196.07 275.439 1196.12 274.769C1196.19 273.979 1196.78 273.699 1197.48 273.699C1198.3 273.699 1198.69 274.279 1198.44 274.959C1198.25 275.479 1197.66 275.849 1197.37 276.149L1197.38 276.159Z" fill="#EB5F65"/>
<path d="M1184.29 213.139C1185.03 213.189 1185.52 213.649 1185.57 214.319C1185.62 215.099 1184.99 215.469 1184.3 215.359C1183.92 215.299 1183.39 214.889 1183.32 214.559C1183.17 213.879 1183.58 213.349 1184.3 213.149L1184.29 213.139Z" fill="#EB5F65"/>
</g>
<rect opacity="0.3" x="212.758" y="522" width="236.291" height="236.291" rx="43.9693" transform="rotate(51.0483 212.758 522)" fill="#2C6AD6"/>
<path opacity="0.3" d="M332.317 -81.8753C364.901 -67.9912 380.059 -30.322 366.175 2.26118L281.354 201.318C267.47 233.901 229.801 249.059 197.218 235.175L-1.83888 150.354C-34.422 136.47 -49.5805 98.801 -35.6964 66.2178L49.1245 -132.839C63.0087 -165.422 100.678 -180.58 133.261 -166.696L332.317 -81.8753Z" fill="#DA5466"/>
</g>
</g>
<defs>
<clipPath id="clip0_413_413">
<rect width="1440" height="680" fill="white"/>
</clipPath>
<clipPath id="clip1_413_413">
<rect width="1440" height="800" fill="white"/>
</clipPath>
<clipPath id="clip2_413_413">
<rect x="568" y="1" width="830" height="682" rx="24" fill="white"/>
</clipPath>
</defs>
</svg>
